<svg width="47" height="446" viewBox="0 0 47 446" fill="none" xmlns="http://www.w3.org/2000/svg">
<path d="M38.5333 419.477L40.3059 408.812H29.2151V401.891C29.2151 398.973 30.7639 396.129 35.7306 396.129H40.7727V387.049C40.7727 387.049 36.1969 386.329 31.8225 386.329C22.6901 386.329 16.7211 391.438 16.7211 400.683V408.812H6.56958V419.477H16.7211V445.259C20.8606 445.857 25.0756 445.857 29.2151 445.259V419.477H38.5333Z" fill="white"/>
<path d="M7.27635 305.333H15.02V328.289H7.27635V305.333ZM11.1496 293.926C12.0362 293.927 12.9026 294.17 13.6392 294.626C14.3757 295.081 14.9495 295.728 15.2878 296.484C15.6262 297.24 15.714 298.072 15.5401 298.874C15.3661 299.677 14.9384 300.413 14.3108 300.991C13.6833 301.569 12.8841 301.963 12.0144 302.121C11.1446 302.28 10.2434 302.198 9.42459 301.884C8.60577 301.57 7.90615 301.039 7.41418 300.359C6.92221 299.678 6.65999 298.878 6.66065 298.06C6.66108 297.516 6.77754 296.978 7.0034 296.476C7.22926 295.974 7.56009 295.518 7.97697 295.135C8.39384 294.751 8.88858 294.446 9.43295 294.239C9.97733 294.031 10.5607 293.925 11.1496 293.926Z" fill="white"/>
<path d="M19.8712 305.334H27.2883V308.474H27.3899C28.4237 306.668 30.9457 304.766 34.7115 304.766C42.5391 304.766 43.9833 309.517 43.9833 315.699V328.289H36.257V317.129C36.257 314.465 36.2002 311.042 32.2382 311.042C28.2133 311.042 27.5995 313.941 27.5995 316.934V328.289H19.8712V305.334Z" fill="white"/>
<path d="M44.8432 210.234C44.8432 205.341 40.5452 201.374 35.2426 201.374H10.6932C5.39051 201.374 1.09253 205.341 1.09253 210.234V220.776C1.09253 225.669 5.38813 229.636 10.6932 229.636H35.2426C40.5452 229.636 44.8432 225.669 44.8432 220.776V210.234ZM30.4057 216.295L19.397 221.321C18.9675 221.537 17.4988 221.248 17.4988 220.795V210.478C17.4988 210.02 18.9784 209.732 19.408 209.959L29.9456 215.25C30.389 215.482 30.8529 216.072 30.4057 216.295Z" fill="white"/>
<path d="M45.5285 106.349C44.1443 106.927 42.6127 107.278 41.1188 107.509C41.828 107.399 42.8695 106.215 43.2871 105.735C43.9253 105.005 44.4527 104.172 44.751 103.272C44.7892 103.202 44.8173 103.114 44.7409 103.061C44.7034 103.046 44.6625 103.04 44.6218 103.043C44.5811 103.046 44.5419 103.059 44.5075 103.079C42.8547 103.893 41.0982 104.513 39.2788 104.925C39.2159 104.943 39.1486 104.945 39.0848 104.929C39.0211 104.913 38.9634 104.881 38.9185 104.837C38.7781 104.683 38.6253 104.538 38.4612 104.406C37.7059 103.806 36.8506 103.322 35.9282 102.974C34.6972 102.514 33.3694 102.316 32.044 102.396C30.7565 102.477 29.5013 102.804 28.3584 103.357C27.2125 103.909 26.2008 104.672 25.3853 105.598C24.5395 106.558 23.9333 107.678 23.6098 108.879C23.3039 110.034 23.3292 111.177 23.5144 112.344C23.5425 112.538 23.5239 112.564 23.334 112.538C16.1526 111.551 10.2003 109.18 5.36825 104.099C5.15824 103.879 5.04463 103.879 4.8728 104.116C2.75793 107.041 3.78411 111.74 6.42544 114.049C6.77768 114.358 7.14139 114.666 7.5299 114.946C7.38671 114.972 5.62932 114.797 4.06285 114.049C3.85332 113.927 3.74784 113.997 3.72875 114.216C3.71559 114.534 3.7346 114.852 3.78554 115.166C4.19172 118.131 6.41637 120.873 9.46531 121.943C9.83494 122.091 10.2214 122.2 10.6175 122.269C9.92304 122.409 9.20852 122.509 7.21726 122.365C6.96955 122.321 6.87505 122.436 6.96955 122.655C8.46538 126.418 11.6947 127.538 14.1137 128.176C14.4373 128.228 14.7613 128.228 15.0864 128.298C15.0663 128.326 15.0472 128.326 15.0286 128.352C14.2263 129.48 11.4451 130.32 10.1497 130.738C7.7943 131.498 5.22934 131.839 2.73979 131.613C2.34125 131.559 2.25773 131.563 2.14987 131.613C2.04009 131.675 2.13555 131.763 2.26394 131.859C2.76892 132.167 3.28297 132.439 3.80703 132.703C5.38093 133.477 7.04192 134.09 8.76035 134.531C17.6618 136.8 27.6883 135.133 34.3723 129.005C39.6225 124.192 41.4605 117.556 41.4605 110.911C41.4605 110.651 41.7946 110.507 41.9913 110.37C43.3568 109.423 44.4584 108.29 45.4755 107.023C45.6297 106.84 45.7112 106.614 45.7065 106.382V106.347C45.7079 106.243 45.706 106.275 45.5285 106.349Z" fill="white"/>
<path d="M35.849 7.72363C35.3054 7.72363 34.7741 7.87237 34.3221 8.15105C33.8702 8.42972 33.5179 8.82581 33.3099 9.28922C33.1019 9.75264 33.0475 10.2626 33.1535 10.7545C33.2596 11.2465 33.5213 11.6984 33.9057 12.0531C34.29 12.4077 34.7797 12.6493 35.3128 12.7471C35.8459 12.845 36.3985 12.7948 36.9007 12.6028C37.4029 12.4109 37.8321 12.0858 38.1341 11.6687C38.4361 11.2517 38.5972 10.7614 38.5972 10.2598C38.5972 9.58713 38.3077 8.94206 37.7923 8.46645C37.2769 7.99083 36.5778 7.72363 35.849 7.72363Z" fill="white"/>
<path d="M23.6309 10.9756C17.2653 10.9756 12.0862 15.7545 12.0862 21.6292C12.0862 27.504 17.2653 32.2829 23.6309 32.2829C29.9965 32.2829 35.1756 27.5035 35.1756 21.6292C35.1756 15.7549 29.9965 10.9756 23.6309 10.9756ZM23.6309 28.4536C19.5529 28.4536 16.2357 25.3925 16.2357 21.6292C16.2357 17.866 19.5529 14.8049 23.6309 14.8049C27.7089 14.8049 31.0256 17.866 31.0256 21.6292C31.0256 25.3925 27.7084 28.4536 23.6309 28.4536Z" fill="white"/>
<path d="M32.7961 43.2594H14.0801C6.31552 43.2594 0 37.4305 0 30.2661V12.9933C0 5.82806 6.31647 0 14.0801 0H32.7961C40.5602 0 46.8762 5.82894 46.8762 12.9933V30.2652C46.8776 37.4305 40.5602 43.2594 32.7961 43.2594ZM14.0801 4.0689C8.74731 4.0689 4.40921 8.07216 4.40921 12.9933V30.2652C4.40921 35.1864 8.74731 39.1897 14.0801 39.1897H32.7961C38.1284 39.1897 42.467 35.1864 42.467 30.2652V12.9933C42.467 8.07216 38.1284 4.0689 32.7961 4.0689H14.0801Z" fill="white"/>
</svg>
